<svg xmlns="http://www.w3.org/2000/svg" xmlns:xlink="http://www.w3.org/1999/xlink" width="1080" zoomAndPan="magnify" viewBox="0 0 810 809.999993" height="1080" preserveAspectRatio="xMidYMid meet" version="1.0"><defs><g/><clipPath id="8d0b8b777f"><path d="M 58 58 L 752 58 L 752 752 L 58 752 Z M 58 58 " clip-rule="nonzero"/></clipPath><clipPath id="d3d3504e75"><path d="M -84.933594 377.25 L 432.746094 -84.941406 L 894.9375 432.738281 L 377.257812 894.929688 Z M -84.933594 377.25 " clip-rule="nonzero"/></clipPath><clipPath id="d991875e68"><path d="M 173.90625 146.15625 C 30.953125 273.785156 18.53125 493.136719 146.164062 636.089844 C 273.792969 779.042969 493.144531 791.464844 636.097656 663.835938 C 779.050781 536.203125 791.472656 316.851562 663.84375 173.898438 C 536.210938 30.945312 316.859375 18.523438 173.90625 146.15625 Z M 173.90625 146.15625 " clip-rule="nonzero"/></clipPath><clipPath id="63b8b1d39f"><path d="M 0 0 L 694 0 L 694 694 L 0 694 Z M 0 0 " clip-rule="nonzero"/></clipPath><clipPath id="38d7e8b6a5"><path d="M -142.933594 319.25 L 374.746094 -142.941406 L 836.9375 374.738281 L 319.257812 836.929688 Z M -142.933594 319.25 " clip-rule="nonzero"/></clipPath><clipPath id="89695e5169"><path d="M 115.90625 88.15625 C -27.046875 215.785156 -39.46875 435.136719 88.164062 578.089844 C 215.792969 721.042969 435.144531 733.464844 578.097656 605.835938 C 721.050781 478.203125 733.472656 258.851562 605.84375 115.898438 C 478.210938 -27.054688 258.859375 -39.476562 115.90625 88.15625 Z M 115.90625 88.15625 " clip-rule="nonzero"/></clipPath><clipPath id="760451aa32"><rect x="0" width="694" y="0" height="694"/></clipPath><clipPath id="cc9cac57d6"><path d="M 127.90625 119 L 682.15625 119 L 682.15625 691 L 127.90625 691 Z M 127.90625 119 " clip-rule="nonzero"/></clipPath><clipPath id="b22361cf18"><path d="M 291 238.246094 L 516 238.246094 L 516 571.996094 L 291 571.996094 Z M 291 238.246094 " clip-rule="nonzero"/></clipPath><clipPath id="95b2c71835"><rect x="0" width="308" y="0" height="390"/></clipPath></defs><g clip-path="url(#8d0b8b777f)"><g clip-path="url(#d3d3504e75)"><g clip-path="url(#d991875e68)"><g transform="matrix(1, 0, 0, 1, 58, 58)"><g clip-path="url(#760451aa32)"><g clip-path="url(#63b8b1d39f)"><g clip-path="url(#38d7e8b6a5)"><g clip-path="url(#89695e5169)"><path fill="#ffffff" d="M -142.933594 319.25 L 374.746094 -142.941406 L 836.9375 374.738281 L 319.257812 836.929688 Z M -142.933594 319.25 " fill-opacity="1" fill-rule="nonzero"/></g></g></g></g></g></g></g></g><g clip-path="url(#cc9cac57d6)"><path fill="#454b91" d="M 335.304688 127.894531 C 410.078125 109.097656 485.597656 121.707031 547.707031 157.566406 C 611.019531 194.113281 660.382812 254.816406 680.800781 331.011719 C 681.246094 332.695312 681.675781 334.378906 682.097656 336.058594 L 677.734375 337.585938 C 677.289062 335.789062 676.832031 333.996094 676.351562 332.203125 C 656.265625 257.234375 607.691406 197.507812 545.40625 161.542969 C 483.445312 125.769531 407.90625 113.519531 333.328125 133.160156 C 334.023438 131.421875 334.683594 129.667969 335.304688 127.894531 Z M 132.273438 473.277344 C 132.640625 474.746094 133.015625 476.210938 133.410156 477.679688 C 153.496094 552.644531 202.070312 612.371094 264.355469 648.339844 C 326.609375 684.28125 402.570312 696.480469 477.5 676.441406 C 476.777344 678.183594 476.097656 679.949219 475.449219 681.734375 C 400.351562 700.898438 324.429688 688.328125 262.054688 652.316406 C 198.742188 615.765625 149.375 555.0625 128.964844 478.867188 C 128.605469 477.511719 128.25 476.160156 127.90625 474.804688 Z M 132.273438 473.277344 " fill-opacity="1" fill-rule="evenodd"/></g><g clip-path="url(#b22361cf18)"><path fill="#9c27b0" d="M 427.503906 258.949219 C 427.757812 258.59375 427.988281 258.445312 428.199219 258.488281 C 428.300781 258.507812 428.34375 258.570312 428.367188 258.675781 C 429.457031 268.671875 430.421875 278.6875 431.304688 288.683594 C 431.324219 288.890625 431.390625 289.039062 431.492188 289.121094 C 431.578125 289.207031 431.703125 289.269531 431.828125 289.269531 C 431.996094 289.269531 432.082031 289.207031 432.0625 289.039062 C 431.996094 282.59375 432.398438 276.1875 433.238281 269.804688 C 433.257812 269.699219 433.277344 269.636719 433.339844 269.574219 C 433.507812 269.40625 433.78125 269.386719 433.929688 269.554688 C 433.992188 269.617188 434.035156 269.679688 434.054688 269.761719 C 435.460938 277.53125 434.851562 285.089844 432.207031 292.503906 C 432.1875 292.546875 432.164062 292.585938 432.164062 292.648438 C 432.164062 292.902344 432.398438 293.132812 432.648438 293.132812 C 432.816406 293.132812 432.964844 293.027344 433.070312 292.902344 C 443.253906 275.707031 438.382812 254.246094 428.09375 238.414062 C 428.03125 238.308594 427.902344 238.246094 427.777344 238.246094 C 427.628906 238.246094 427.484375 238.351562 427.441406 238.496094 C 424.878906 247.503906 422.148438 256.511719 419.253906 265.5 C 416.332031 274.613281 422.464844 287.273438 427.085938 295.023438 C 427.105469 295.066406 427.148438 295.085938 427.1875 295.105469 C 427.273438 295.128906 427.378906 295.085938 427.398438 294.980469 C 427.421875 294.9375 427.421875 294.898438 427.421875 294.855469 C 424.773438 287.882812 423.347656 280.640625 423.117188 273.164062 C 423.117188 273.144531 423.117188 273.121094 423.117188 273.101562 C 423.117188 272.953125 423.242188 272.828125 423.410156 272.828125 C 423.535156 272.828125 423.660156 272.933594 423.683594 273.058594 L 427.925781 287 C 427.945312 287.042969 427.964844 287.066406 427.988281 287.085938 C 428.050781 287.128906 428.15625 287.105469 428.21875 287.023438 C 428.238281 287 428.238281 286.980469 428.238281 286.9375 L 427.273438 259.683594 C 427.273438 259.410156 427.335938 259.160156 427.503906 258.949219 Z M 439.03125 478.121094 C 443.421875 475.054688 448.398438 473.3125 454.003906 472.894531 C 465.972656 472.011719 483.148438 473.585938 497.636719 473.25 C 516.261719 472.808594 515.335938 454.667969 508.511719 442.972656 C 505.195312 437.300781 519.535156 427.726562 508.007812 423.988281 C 507.609375 423.863281 507.335938 423.507812 507.335938 423.066406 C 507.335938 422.707031 507.527344 422.394531 507.839844 422.226562 C 511.261719 420.378906 512.566406 417.542969 511.765625 413.722656 C 511.664062 413.175781 511.347656 412.714844 510.925781 412.398438 L 506.558594 409.1875 C 506.183594 408.890625 505.949219 408.515625 505.910156 408.03125 C 505.070312 398.75 508.449219 396.378906 513.34375 389.46875 C 517.6875 383.339844 515.421875 379.8125 509.835938 375.925781 C 501.730469 370.320312 493.519531 364.609375 485.207031 358.792969 C 485.039062 358.6875 484.933594 358.5 484.933594 358.289062 C 484.933594 358.078125 485.039062 357.910156 485.183594 357.785156 C 489.742188 354.339844 492.574219 349.761719 493.648438 344.074219 C 493.648438 344.03125 493.667969 344.011719 493.667969 343.988281 C 493.667969 343.714844 493.457031 343.507812 493.207031 343.507812 C 493.058594 343.507812 492.910156 343.589844 492.828125 343.695312 C 490.726562 346.320312 487.347656 351.546875 484.15625 352.765625 C 483.609375 352.976562 483.230469 352.808594 483.023438 352.242188 C 480.4375 345.226562 481.070312 337.753906 479.515625 331.875 C 474.726562 313.691406 460.785156 295.96875 446.484375 283.707031 C 445.121094 282.53125 444.492188 282.84375 444.597656 284.628906 C 446.171875 312.703125 413.855469 332.148438 391.367188 341.027344 C 362.328125 352.453125 333.289062 362.488281 311.640625 386.339844 C 297.277344 402.195312 290.453125 419.246094 291.902344 440.535156 C 291.921875 440.765625 292.113281 440.933594 292.34375 440.933594 C 292.554688 440.933594 292.742188 440.789062 292.785156 440.578125 C 299.480469 405.21875 320.667969 387.453125 351.15625 371.683594 C 367.683594 363.140625 384.332031 354.59375 401.109375 346.027344 C 401.195312 346.003906 401.277344 345.984375 401.382812 345.984375 C 401.699219 345.984375 401.972656 346.234375 401.972656 346.570312 C 401.972656 346.570312 401.972656 346.59375 401.972656 346.613281 C 401.910156 347.328125 401.53125 347.980469 400.816406 348.566406 C 354.179688 387.265625 322.558594 448.535156 373.898438 500.820312 C 374.171875 501.09375 374.402344 501.050781 374.546875 500.695312 C 374.589844 500.589844 374.632812 500.460938 374.675781 500.359375 C 374.695312 500.230469 374.675781 500.148438 374.613281 500.042969 C 363.167969 485.15625 354.644531 465.964844 355 447.402344 C 355.378906 425.710938 367.386719 408.976562 380.324219 391.695312 C 381.6875 389.867188 382.652344 387.875 384.859375 386.59375 C 384.941406 386.550781 385.027344 386.53125 385.089844 386.53125 C 385.363281 386.53125 385.59375 386.738281 385.59375 387.011719 C 385.59375 387.097656 385.550781 387.203125 385.507812 387.265625 C 371.167969 409.292969 368.4375 433.753906 383.347656 456.453125 C 383.410156 456.558594 383.535156 456.621094 383.640625 456.621094 C 383.851562 456.621094 384.019531 456.453125 384.019531 456.261719 C 384.019531 456.242188 384.019531 456.222656 384.019531 456.199219 C 383.242188 451.011719 382.589844 445.703125 382.066406 440.285156 C 379.902344 417.542969 387.589844 396.988281 401.070312 378.929688 C 418.726562 355.328125 429.960938 340.082031 434.769531 333.257812 C 441.027344 324.378906 445.140625 314.632812 447.074219 303.988281 C 447.09375 303.945312 447.117188 303.90625 447.136719 303.863281 C 447.242188 303.757812 447.410156 303.757812 447.515625 303.863281 C 447.558594 303.90625 447.578125 303.945312 447.578125 303.988281 C 455.410156 340.714844 434.75 357.113281 414.570312 384.136719 C 401.445312 401.710938 397.203125 419.726562 404.46875 441.332031 C 408.902344 454.5 415.621094 466.382812 424.628906 476.988281 C 438.421875 493.261719 451.945312 509.449219 445.855469 531.875 C 444.617188 536.453125 444.933594 536.558594 446.78125 532.191406 C 454.675781 513.605469 452.007812 496.160156 438.820312 479.800781 C 438.652344 479.589844 438.550781 479.339844 438.550781 479.066406 C 438.550781 478.6875 438.738281 478.351562 439.03125 478.121094 Z M 452.679688 299.074219 C 455.15625 305.921875 457.277344 312.429688 459 318.644531 C 473.109375 369.417969 444.324219 406.773438 419.902344 447.171875 C 419.671875 447.550781 419.441406 447.550781 419.253906 447.128906 C 415.011719 438.542969 415.011719 427.539062 416.523438 417.902344 C 418.789062 403.476562 431.222656 386.234375 442.140625 371.683594 C 455.136719 354.382812 459.757812 335.171875 456.019531 314.003906 C 455.136719 309.070312 453.332031 303.863281 451.796875 298.761719 C 451.589844 298.027344 451.734375 297.878906 452.238281 298.320312 C 452.40625 298.464844 452.554688 298.738281 452.679688 299.074219 Z M 410.789062 467.832031 C 410.390625 467.328125 410.078125 467.371094 409.886719 467.980469 C 405.917969 479.253906 403.484375 491.371094 404.953125 503.277344 C 408.1875 529.480469 426.160156 553.921875 444.847656 571.601562 C 444.953125 571.707031 445.078125 571.75 445.226562 571.75 C 445.542969 571.75 445.792969 571.496094 445.792969 571.183594 C 445.792969 571.097656 445.773438 571.015625 445.730469 570.929688 C 444.890625 569.375 444.511719 567.296875 443.734375 565.847656 C 430.234375 540.273438 418.078125 520.640625 429.289062 492.714844 C 429.605469 491.917969 429.457031 491.054688 428.933594 490.40625 Z M 398.988281 312.683594 C 403.316406 310.015625 409.46875 308.273438 417.46875 307.453125 C 417.613281 307.433594 417.613281 307.410156 417.488281 307.371094 C 403.523438 302.097656 383.703125 315.285156 375.515625 325.679688 C 375.453125 325.761719 375.429688 325.847656 375.429688 325.929688 C 375.429688 326.140625 375.597656 326.308594 375.808594 326.308594 C 393.824219 326.476562 408.648438 328.304688 420.46875 311.632812 C 420.492188 311.589844 420.511719 311.546875 420.511719 311.484375 C 420.511719 311.378906 420.429688 311.296875 420.324219 311.296875 C 420.261719 311.296875 420.21875 311.316406 420.175781 311.359375 C 415.578125 314.992188 410.621094 317.972656 405.269531 320.324219 C 405.203125 320.367188 405.140625 320.386719 405.058594 320.386719 C 404.804688 320.386719 404.617188 320.179688 404.617188 319.925781 C 404.617188 319.777344 404.699219 319.609375 404.847656 319.546875 L 414.71875 312.890625 C 414.800781 312.851562 414.84375 312.785156 414.84375 312.703125 C 414.84375 312.578125 414.738281 312.492188 414.632812 312.492188 C 414.589844 312.492188 414.550781 312.492188 414.527344 312.515625 L 391.890625 321.375 C 391.367188 321.585938 391.136719 321.394531 391.199219 320.828125 C 391.242188 320.410156 391.578125 320.050781 392.1875 319.777344 C 398.507812 316.921875 403.589844 314.675781 407.429688 313.058594 C 411.820312 311.191406 411.691406 310.792969 407.011719 311.84375 C 405.058594 312.28125 402.601562 312.996094 399.660156 313.984375 C 399.179688 314.152344 398.882812 314.171875 398.78125 314.027344 C 398.632812 313.878906 398.546875 313.667969 398.546875 313.457031 C 398.546875 313.121094 398.714844 312.828125 398.988281 312.683594 Z M 405.371094 285.636719 C 405.226562 285.53125 405.121094 285.363281 405.121094 285.175781 C 405.121094 284.882812 405.371094 284.628906 405.667969 284.628906 C 405.707031 284.628906 405.75 284.628906 405.8125 284.648438 C 412.597656 286.582031 418.097656 290.382812 422.359375 296.03125 C 422.820312 296.660156 422.96875 296.597656 422.800781 295.820312 C 422.484375 294.433594 421.878906 293.175781 420.996094 292.0625 C 410.851562 279.191406 394.917969 274.824219 379.148438 275.390625 C 378.476562 275.410156 378.371094 275.664062 378.8125 276.144531 C 383.535156 281.332031 388.324219 286.414062 393.152344 291.390625 C 401.53125 300.019531 408.710938 300.019531 420.09375 300.734375 C 420.363281 300.753906 420.574219 300.714844 420.722656 300.628906 C 420.828125 300.546875 420.910156 300.460938 420.972656 300.378906 C 421.140625 300.1875 421.101562 300.042969 420.828125 300 C 413.855469 298.613281 408.480469 297.226562 404.722656 295.84375 C 404.050781 295.589844 403.628906 295.023438 403.421875 294.140625 C 403.335938 293.699219 403.503906 293.511719 403.964844 293.636719 L 414.96875 296.410156 C 416.398438 296.746094 416.460938 296.597656 415.15625 295.945312 L 394.769531 285.617188 C 394.308594 285.386719 394.265625 285.089844 394.664062 284.734375 C 395.019531 284.441406 395.378906 284.378906 395.757812 284.523438 C 403.335938 287.671875 409.046875 290.195312 412.890625 292.144531 C 418.894531 295.167969 419.125 294.769531 413.5625 290.992188 C 410.875 289.144531 408.144531 287.359375 405.371094 285.636719 Z M 405.371094 285.636719 " fill-opacity="1" fill-rule="evenodd"/></g><g transform="matrix(1, 0, 0, 1, 35, 81)"><g clip-path="url(#95b2c71835)"><g fill="#9c27b0" fill-opacity="1"><g transform="translate(105.148098, 358.170183)"><g><path d="M -30.921875 -16.625 C -30.691406 -13.019531 -29.316406 -10.253906 -26.796875 -8.328125 C -24.273438 -6.398438 -20.9375 -5.566406 -16.78125 -5.828125 C -12.507812 -6.097656 -9.269531 -7.304688 -7.0625 -9.453125 C -4.851562 -11.609375 -3.867188 -14.546875 -4.109375 -18.265625 C -4.242188 -20.535156 -4.8125 -23.109375 -5.8125 -25.984375 L -2.484375 -26.203125 C -1.484375 -23.984375 -0.878906 -21.210938 -0.671875 -17.890625 C -0.367188 -13.078125 -1.59375 -9.269531 -4.34375 -6.46875 C -7.101562 -3.664062 -11.175781 -2.097656 -16.5625 -1.765625 C -19.925781 -1.546875 -22.914062 -1.984375 -25.53125 -3.078125 C -28.144531 -4.179688 -30.210938 -5.878906 -31.734375 -8.171875 C -33.253906 -10.460938 -34.117188 -13.21875 -34.328125 -16.4375 C -34.546875 -19.863281 -34.109375 -22.894531 -33.015625 -25.53125 L -29.640625 -24.15625 C -30.648438 -21.601562 -31.078125 -19.09375 -30.921875 -16.625 Z M -30.921875 -16.625 "/></g></g></g><g fill="#9c27b0" fill-opacity="1"><g transform="translate(103.641707, 317.63667)"><g><path d="M 0.375 -4.484375 L -32.25 -7.25 L -31.921875 -11.046875 L -2.734375 -8.578125 L -1.515625 -22.984375 L 1.921875 -22.6875 Z M 0.375 -4.484375 "/></g></g></g><g fill="#9c27b0" fill-opacity="1"><g transform="translate(107.699902, 282.017791)"><g><path d="M 0.90625 -4.40625 L -31.171875 -11 L -30.40625 -14.734375 L 1.671875 -8.140625 Z M 0.90625 -4.40625 "/></g></g></g><g fill="#9c27b0" fill-opacity="1"><g transform="translate(112.913581, 257.840967)"><g><path d="M -22.203125 -27.1875 C -23.367188 -23.78125 -23.15625 -20.703125 -21.5625 -17.953125 C -19.96875 -15.203125 -17.195312 -13.15625 -13.25 -11.8125 C -9.207031 -10.414062 -5.753906 -10.289062 -2.890625 -11.4375 C -0.0234375 -12.582031 2.003906 -14.914062 3.203125 -18.4375 C 3.941406 -20.59375 4.394531 -23.191406 4.5625 -26.234375 L 7.734375 -25.140625 C 7.804688 -22.722656 7.300781 -19.9375 6.21875 -16.78125 C 4.65625 -12.21875 2.066406 -9.171875 -1.546875 -7.640625 C -5.160156 -6.109375 -9.519531 -6.21875 -14.625 -7.96875 C -17.820312 -9.0625 -20.414062 -10.613281 -22.40625 -12.625 C -24.40625 -14.632812 -25.664062 -16.992188 -26.1875 -19.703125 C -26.707031 -22.410156 -26.445312 -25.285156 -25.40625 -28.328125 C -24.289062 -31.578125 -22.726562 -34.21875 -20.71875 -36.25 L -18.125 -33.65625 C -20.039062 -31.6875 -21.398438 -29.53125 -22.203125 -27.1875 Z M -22.203125 -27.1875 "/></g></g></g><g fill="#9c27b0" fill-opacity="1"><g transform="translate(126.900857, 219.87426)"><g><path d="M 13.140625 -24.90625 L 11.046875 -20.9375 L -8.546875 -17.78125 L -7.46875 -13.328125 L 3.875 -7.34375 L 2.09375 -3.984375 L -26.875 -19.28125 L -25.09375 -22.640625 L -10.734375 -15.046875 L -18.15625 -35.78125 L -16.0625 -39.75 L -9.625 -21.484375 Z M 13.140625 -24.90625 "/></g></g></g><g fill="#9c27b0" fill-opacity="1"><g transform="translate(146.714353, 185.015608)"><g/></g></g><g fill="#9c27b0" fill-opacity="1"><g transform="translate(160.380845, 165.568006)"><g><path d="M 19.90625 -21.578125 L 17.328125 -18.796875 L 6 -29.234375 L -5.6875 -16.546875 L 5.640625 -6.109375 L 3.046875 -3.3125 L -21.03125 -25.515625 L -18.4375 -28.3125 L -8.1875 -18.859375 L 3.5 -31.546875 L -6.75 -41 L -4.171875 -43.78125 Z M 19.90625 -21.578125 "/></g></g></g><g fill="#9c27b0" fill-opacity="1"><g transform="translate(191.992382, 133.131912)"><g><path d="M 17.90625 -14.0625 L 3.53125 -2.78125 L -16.703125 -28.53125 L -2.328125 -39.8125 L -0.234375 -37.15625 L -11.609375 -28.234375 L -5.09375 -19.9375 L 5.59375 -28.328125 L 7.671875 -25.6875 L -3.015625 -17.296875 L 4.421875 -7.8125 L 15.796875 -16.734375 Z M 17.90625 -14.0625 "/></g></g></g><g fill="#9c27b0" fill-opacity="1"><g transform="translate(221.64995, 110.802206)"><g><path d="M 0.515625 -15.953125 L 7.234375 -4.109375 L 3.90625 -2.21875 L -12.25 -30.703125 L -4.421875 -35.140625 C -0.929688 -37.117188 2.019531 -37.910156 4.4375 -37.515625 C 6.863281 -37.128906 8.84375 -35.59375 10.375 -32.90625 C 12.507812 -29.132812 12.046875 -25.503906 8.984375 -22.015625 L 23.984375 -13.609375 L 20.078125 -11.390625 L 6.453125 -19.3125 Z M -1.109375 -18.796875 L 3.421875 -21.359375 C 5.765625 -22.691406 7.21875 -24.128906 7.78125 -25.671875 C 8.34375 -27.222656 8.097656 -28.929688 7.046875 -30.796875 C 5.972656 -32.679688 4.644531 -33.722656 3.0625 -33.921875 C 1.488281 -34.117188 -0.523438 -33.519531 -2.984375 -32.125 L -7.28125 -29.6875 Z M -1.109375 -18.796875 "/></g></g></g><g fill="#9c27b0" fill-opacity="1"><g transform="translate(256.870352, 91.933515)"><g><path d="M 21.25 -8.15625 L 4.203125 -1.609375 L -7.53125 -32.1875 L 9.515625 -38.734375 L 10.734375 -35.5625 L -2.75 -30.390625 L 1.03125 -20.546875 L 13.703125 -25.40625 L 14.90625 -22.265625 L 2.234375 -17.40625 L 6.546875 -6.171875 L 20.03125 -11.34375 Z M 21.25 -8.15625 "/></g></g></g></g></g><g fill="#9c27b0" fill-opacity="1"><g transform="translate(658.610223, 339.293805)"><g><path d="M 24.34375 17 L 16.609375 17.21875 L 17.984375 23.375 L 15.171875 24 L 13.6875 17.328125 L 3.921875 17.578125 L 3.25 14.59375 L 13.015625 14.328125 L 11.546875 7.734375 L 1.796875 8.03125 L 1.125 5.078125 L 10.875 4.71875 L 9.609375 -0.984375 L 12.421875 -1.609375 L 13.8125 4.640625 L 21.546875 4.484375 L 20.203125 -1.546875 L 22.96875 -2.171875 L 24.421875 4.328125 L 34.3125 4.015625 L 35 7.046875 L 25.09375 7.375 L 26.578125 14 L 36.484375 13.71875 L 37.140625 16.65625 L 27.234375 16.9375 L 28.5 22.6875 L 25.734375 23.3125 Z M 14.46875 7.625 L 15.953125 14.21875 L 23.671875 14.015625 L 22.203125 7.421875 Z M 14.46875 7.625 "/></g></g></g><g fill="#9c27b0" fill-opacity="1"><g transform="translate(666.263462, 379.518173)"><g><path d="M 0.40625 4.46875 L 32.890625 1.515625 L 33.234375 5.296875 L 0.75 8.25 Z M 0.40625 4.46875 "/></g></g></g><g fill="#9c27b0" fill-opacity="1"><g transform="translate(668.40876, 403.502648)"><g><path d="M -1.421875 29.9375 L -1.21875 25.609375 L 26.96875 9.09375 L 26.984375 8.90625 C 23.765625 8.988281 20.820312 8.96875 18.15625 8.84375 L -0.375 7.96875 L -0.21875 4.484375 L 32.375 6.03125 L 32.171875 10.296875 L 4.109375 26.78125 L 4.09375 26.953125 C 4.488281 26.941406 5.773438 26.9375 7.953125 26.9375 C 10.140625 26.9375 11.703125 26.972656 12.640625 27.046875 L 31.34375 27.9375 L 31.171875 31.484375 Z M -1.421875 29.9375 "/></g></g></g><g fill="#9c27b0" fill-opacity="1"><g transform="translate(665.017336, 448.714031)"><g><path d="M 3.78125 24.1875 C 0.96875 23.59375 -1.007812 22.109375 -2.15625 19.734375 C -3.300781 17.367188 -3.503906 14.441406 -2.765625 10.953125 C -1.960938 7.160156 -0.859375 4.351562 0.546875 2.53125 L 4.125 3.28125 C 3.289062 4.476562 2.550781 5.8125 1.90625 7.28125 C 1.257812 8.757812 0.773438 10.253906 0.453125 11.765625 C -0.0664062 14.242188 0.00390625 16.207031 0.671875 17.65625 C 1.347656 19.113281 2.53125 20.019531 4.21875 20.375 C 5.3125 20.601562 6.257812 20.570312 7.0625 20.28125 C 7.863281 19.988281 8.671875 19.378906 9.484375 18.453125 C 10.304688 17.535156 11.316406 16.09375 12.515625 14.125 C 14.210938 11.382812 15.921875 9.53125 17.640625 8.5625 C 19.367188 7.601562 21.40625 7.367188 23.75 7.859375 C 26.207031 8.378906 27.96875 9.710938 29.03125 11.859375 C 30.09375 14.015625 30.304688 16.617188 29.671875 19.671875 C 28.992188 22.835938 27.796875 25.640625 26.078125 28.078125 L 23.078125 26.21875 C 24.753906 23.8125 25.851562 21.363281 26.375 18.875 C 26.789062 16.90625 26.691406 15.28125 26.078125 14 C 25.460938 12.71875 24.40625 11.921875 22.90625 11.609375 C 21.800781 11.367188 20.851562 11.378906 20.0625 11.640625 C 19.269531 11.898438 18.476562 12.453125 17.6875 13.296875 C 16.894531 14.140625 15.925781 15.484375 14.78125 17.328125 C 12.894531 20.421875 11.132812 22.453125 9.5 23.421875 C 7.863281 24.390625 5.957031 24.644531 3.78125 24.1875 Z M 3.78125 24.1875 "/></g></g></g><g fill="#9c27b0" fill-opacity="1"><g transform="translate(656.751045, 484.034969)"><g><path d="M -5 13.640625 L -3.703125 10.078125 L 23.765625 20.15625 L 27.328125 10.453125 L 30.484375 11.609375 L 22.0625 34.578125 L 18.90625 33.421875 L 22.46875 23.71875 Z M -5 13.640625 "/></g></g></g><g fill="#9c27b0" fill-opacity="1"><g transform="translate(643.450933, 517.983119)"><g><path d="M 8.265625 19 L 18.453125 34.421875 L 16.5 38.03125 L 4.125 18.96875 L -7 12.9375 L -5.171875 9.5625 L 5.796875 15.5 L 28.6875 15.53125 L 26.703125 19.1875 Z M 8.265625 19 "/></g></g></g><g fill="#9c27b0" fill-opacity="1"><g transform="translate(625.170702, 549.942044)"><g><path d="M -2.671875 3.609375 L 23.53125 23.03125 L 21.265625 26.078125 L -2.171875 8.703125 L -10.734375 20.265625 L -13.5 18.21875 Z M -2.671875 3.609375 "/></g></g></g><g fill="#9c27b0" fill-opacity="1"><g transform="translate(603.323758, 577.721778)"><g><path d="M -3.078125 3.265625 L 20.65625 25.640625 L 18.046875 28.40625 L -5.6875 6.03125 Z M -3.078125 3.265625 "/></g></g></g><g fill="#9c27b0" fill-opacity="1"><g transform="translate(586.325628, 595.220123)"><g><path d="M -6.34375 5.3125 L -3.4375 2.875 L 17.515625 27.890625 L 3.578125 39.578125 L 1.40625 36.984375 L 12.4375 27.734375 L 4.765625 18.578125 L -5.59375 27.265625 L -7.75 24.703125 L 2.609375 16.015625 Z M -6.34375 5.3125 "/></g></g></g><g fill="#9c27b0" fill-opacity="1"><g transform="translate(558.697816, 617.050829)"><g><path d="M -3.75 2.453125 L 14.109375 29.75 L 10.9375 31.828125 L -6.921875 4.53125 Z M -3.75 2.453125 "/></g></g></g><g fill="#9c27b0" fill-opacity="1"><g transform="translate(538.157478, 630.110678)"><g><path d="M -20.328125 10.03125 L -4.015625 1.984375 L 10.421875 31.234375 L -5.890625 39.28125 L -7.390625 36.265625 L 5.515625 29.90625 L 0.875 20.484375 L -11.25 26.453125 L -12.734375 23.4375 L -0.609375 17.46875 L -5.921875 6.71875 L -18.828125 13.078125 Z M -20.328125 10.03125 "/></g></g></g><g fill="#9c27b0" fill-opacity="1"><g transform="translate(505.299064, 645.701089)"><g><path d="M -24.265625 24.890625 C -25.859375 19.742188 -25.675781 15.378906 -23.71875 11.796875 C -21.769531 8.210938 -18.175781 5.609375 -12.9375 3.984375 L -4.28125 1.328125 L 5.34375 32.5 L -4.21875 35.4375 C -9.0625 36.9375 -13.242188 36.753906 -16.765625 34.890625 C -20.285156 33.035156 -22.785156 29.703125 -24.265625 24.890625 Z M -20.484375 23.5625 C -19.222656 27.632812 -17.253906 30.382812 -14.578125 31.8125 C -11.898438 33.25 -8.550781 33.347656 -4.53125 32.109375 L 0.75 30.484375 L -6.9375 5.578125 L -11.359375 6.9375 C -15.679688 8.269531 -18.601562 10.332031 -20.125 13.125 C -21.644531 15.925781 -21.765625 19.40625 -20.484375 23.5625 Z M -20.484375 23.5625 "/></g></g></g></svg>