<?xml version="1.0" encoding="UTF-8"?>
<svg version="1.1" xmlns="http://www.w3.org/2000/svg" width="921" height="2407">
<path d="M0 0 C8.10835497 4.90948919 14.55550978 17.17539032 17 26 C17.22026802 30.18509244 16.98707784 33.9283039 16 38 C16.86625 36.824375 16.86625 36.824375 17.75 35.625 C21.10460792 31.71129076 22.71889205 31.12397819 27.875 30.625 C32.19484309 30.73762161 34.66918786 32.2114131 38 35 C40.51757802 37.91938598 41.64887443 40.47071416 42.625 44.1875 C42.86476563 45.06792969 43.10453125 45.94835938 43.3515625 46.85546875 C44.9369807 54.54379197 45.16230781 62.23439561 45.24609375 70.0625 C45.27901723 72.17969187 45.31222912 74.29687927 45.34570312 76.4140625 C45.39310256 79.71188467 45.43761511 83.00968682 45.47680664 86.30761719 C45.51673016 89.51775511 45.56819959 92.72755313 45.62109375 95.9375 C45.63371498 97.40038452 45.63371498 97.40038452 45.64659119 98.89282227 C45.94458239 115.56806743 52.09769187 126.40641609 63.82495117 137.93847656 C65.69759795 139.73685633 67.58788817 141.51708694 69.49731445 143.27636719 C78.2112279 151.49344505 82.00407322 160.08743569 84.625 171.625 C84.8310083 172.51687012 85.0370166 173.40874023 85.24926758 174.32763672 C92.15746996 205.75222754 92.30516099 238.76725681 93.60180664 270.80078125 C94.18377147 285.08558083 94.880995 299.35188663 96.16887093 313.59299469 C96.34014177 315.49468848 96.5008128 317.39732795 96.66099548 319.29998779 C97.86077328 331.70256222 100.53562967 343.62557189 106.6875 354.5625 C107.12030273 355.36059082 107.55310547 356.15868164 107.99902344 356.98095703 C111.0427131 362.5130237 114.38478369 367.80500808 117.87011719 373.06567383 C129.07066758 390.18098028 130.66823703 405.64927022 126.63378906 425.25683594 C120.78443387 450.57399885 110.75113593 475.05545721 100.87939453 499.02758789 C97.78176205 506.55726018 94.79157511 514.11115928 91.93505859 521.73681641 C79.19958734 555.68644253 79.19958734 555.68644253 65.73828125 562.69921875 C62.19318643 564.24751649 58.62427366 565.64830797 55 567 C52.78695432 567.86301211 50.57823811 568.73724838 48.375 569.625 C46.96347656 570.17027344 46.96347656 570.17027344 45.5234375 570.7265625 C42.51636062 572.24406569 40.98813225 573.24786933 39 576 C36.44101029 583.90276234 36.61800356 592.30440002 36.43359375 600.52148438 C35.86717121 618.93021697 27.1617938 632.13847942 14.25 644.875 C13.74473785 645.34903763 13.23947571 645.82307526 12.71890259 646.31147766 C10.96012047 648.03917469 9.37019025 649.84367162 7.77099609 651.71948242 C4.16070885 655.87465264 0.33876426 659.75684171 -3.5859375 663.61328125 C-5.02618046 665.04087562 -6.46628015 666.46861453 -7.90625 667.89648438 C-10.13766206 670.10318453 -12.37066177 672.3082268 -14.60644531 674.51049805 C-22.89748514 682.68541943 -30.84351571 690.79894818 -38 700 C-38.95832758 701.14849618 -39.92343175 702.29140961 -40.8984375 703.42578125 C-45.96880941 709.33588352 -50.87778453 715.33518262 -55.65917969 721.48095703 C-61.1112638 728.46631956 -66.77895309 735.27291081 -72.4296875 742.09765625 C-74.5087402 744.61630964 -76.56668129 747.15188999 -78.625 749.6875 C-86.60909143 759.44583397 -94.85329827 768.95462514 -103.421875 778.203125 C-105.79283218 780.77525431 -108.11870887 783.38093376 -110.4375 786 C-114.32768732 790.34415891 -118.40122295 794.4704288 -122.57592773 798.5390625 C-125.1324933 801.04985835 -127.54180085 803.61409052 -129.85302734 806.35302734 C-134.78314547 812.00832607 -140.13248629 817.24366847 -145.45271301 822.52787781 C-147.38151763 824.44376469 -149.30704603 826.36289273 -151.23181152 828.28283691 C-156.01002439 833.04777408 -160.79369816 837.80721655 -165.57720947 842.5668335 C-169.63035284 846.60015475 -173.68137892 850.63558074 -177.72969055 854.67375183 C-179.61472776 856.55236917 -181.50278098 858.42791748 -183.39099121 860.30334473 C-188.63135315 865.52162558 -193.83094339 870.7148656 -198.59606934 876.3795166 C-200.15195426 878.17539282 -201.80376356 879.83680313 -203.5 881.5 C-206.53594925 884.48872337 -209.34508659 887.61706479 -212.125 890.84375 C-214.17359094 893.19962958 -216.27203002 895.5050746 -218.375 897.8125 C-234.25185655 913.79714257 -234.25185655 913.79714257 -241 934 C-238.65368857 936.34631143 -238.14120485 936.30275992 -234.94921875 936.33203125 C-229.74040244 936.20422666 -225.56312664 934.71969375 -220.8125 932.6875 C-219.95374268 932.32994629 -219.09498535 931.97239258 -218.21020508 931.60400391 C-183.7021061 916.95778031 -153.48361993 895.87064466 -124 873 C-123.33242676 872.48308594 -122.66485352 871.96617187 -121.97705078 871.43359375 C-115.30337547 866.25686701 -108.72644615 860.97058055 -102.1875 855.625 C-95.98306018 850.55287797 -89.67023653 845.64539803 -83.28369141 840.80517578 C-78.64344922 837.28122327 -74.08657151 833.67138593 -69.5625 830 C-30.86791172 798.75601879 9.77992 773.06480032 59.9609375 768.55078125 C74.56990389 767.17580092 84.64795227 762.03662588 96.19140625 753.35693359 C120.10090066 735.41835774 120.10090066 735.41835774 132 737 C143.58948199 740.88129757 150.5468243 749.15236684 157.25 758.875 C162.90474031 767.06858632 168.91392625 772.35521354 177 778 C190.50433421 788.81941737 198.86526778 807.14018695 207 822 C207.93356323 823.69201538 207.93356323 823.69201538 208.88598633 825.41821289 C213.8572303 834.51528114 218.18606182 843.80684086 222.3125 853.3125 C222.96453462 854.8014406 223.61696617 856.29020744 224.26977539 857.77880859 C228.70633266 867.91857123 233.00513131 878.11279073 237.27514648 888.32373047 C240.33489383 895.58173581 243.6687365 902.63791996 247.27734375 909.63671875 C253.73340498 922.24140972 257.48790014 932.3181742 253.375 946.5 C248.6224172 960.31829726 240.67733512 972.02345208 232.79296875 984.21777344 C230.1256524 988.3567627 227.49883993 992.52086481 224.875 996.6875 C223.88942495 998.25006436 222.90374832 999.81256466 221.91796875 1001.375 C221.43505371 1002.14070312 220.95213867 1002.90640625 220.45458984 1003.6953125 C219.00918211 1005.98545164 217.56159316 1008.27419657 216.11328125 1010.5625 C208.67135883 1022.32380754 201.28859248 1034.1215191 193.91894531 1045.92822266 C192.03951993 1048.93673794 190.15702804 1051.94330979 188.2734375 1054.94921875 C180.40100396 1067.51692626 172.59873239 1080.12601826 164.8359375 1092.76171875 C161.40287542 1098.34877523 157.95490422 1103.92643131 154.5 1109.5 C137.08126269 1137.61719946 119.80634126 1165.81356055 102.95483398 1194.27441406 C98.69485433 1201.46826235 94.41519093 1208.64910035 90.09838867 1215.80908203 C81.88292854 1229.43604655 73.90597007 1243.19160017 66 1257 C65.00130311 1258.74048795 64.00260497 1260.48097518 63.00375366 1262.22137451 C54.49875821 1277.04424196 46.07894978 1291.91312425 37.76074219 1306.84179688 C35.95038584 1310.08899178 34.13545079 1313.33360111 32.3203125 1316.578125 C23.71974869 1331.9756915 15.31641322 1347.47152392 7.03955078 1363.04522705 C5.94423976 1365.10485165 4.84728225 1367.16359293 3.75 1369.22216797 C-7.68733675 1390.64962741 -7.68733675 1390.64962741 -18.6706543 1412.31176758 C-20.85181737 1416.73091196 -23.09968818 1421.10282482 -25.42602539 1425.44726562 C-33.42554421 1440.39403505 -40.6826488 1455.71171704 -48 1471 C-48.35100769 1471.73230835 -48.70201538 1472.4646167 -49.06365967 1473.21911621 C-59.77979191 1495.57866122 -70.11799693 1518.08540255 -80.04223633 1540.80773926 C-80.9817005 1542.9581136 -81.92335073 1545.10752046 -82.86523438 1547.25683594 C-121.18073718 1634.81245198 -153.09492464 1725.18836685 -212 2032 C-212.07670929 2033.12199799 -212.07670929 2033.12199799 -212.15496826 2034.2666626 C-218.19772547 2124.05315732 -208.60410196 2209.2028739 -179.125 2306.625 C-178.79258301 2307.65906982 -178.46016602 2308.69313965 -178.11767578 2309.75854492 C-174.86149585 2319.36484075 -170.3673206 2327.10043408 -162.9921875 2334.0859375 C-160.47831177 2336.50122986 -158.24452853 2339.09864627 -155.98046875 2341.74609375 C-154.021148 2343.97593216 -151.98951348 2346.12581685 -149.94555664 2348.27783203 C-138.8005979 2360.10982167 -126.75338972 2377.30115742 -126.6875 2394.125 C-126.67074219 2395.11757812 -126.65398438 2396.11015625 -126.63671875 2397.1328125 C-127.06326661 2400.49933004 -127.94183614 2402.31463045 -130 2405 C-134.11088338 2407.74058892 -138.22997612 2407.58348916 -143 2407 C-152.34881086 2404.60147127 -160.67176439 2400.00111308 -167.8125 2393.5625 C-171.47500833 2390.67418042 -173.99172049 2390.8324638 -178.5625 2391.3125 C-180.23699219 2391.52326172 -180.23699219 2391.52326172 -181.9453125 2391.73828125 C-186.42399347 2392.12200456 -188.23770223 2391.45701079 -192 2389 C-196.31669916 2384.7196235 -199.2855836 2380.14447805 -201.75 2374.625 C-202.07726074 2373.91456543 -202.40452148 2373.20413086 -202.74169922 2372.47216797 C-206.22553738 2364.768744 -209.30150258 2356.88883129 -212.32324219 2348.99462891 C-222.25416478 2323.43048563 -240.39852188 2311.55394586 -262.89477539 2297.50439453 C-301.06920299 2273.56483022 -316.02563439 2244.71090819 -331.68359375 2203.328125 C-344.46198629 2167.91249307 -344.46198629 2167.91249307 -364 2136 C-364.47179687 2135.33742188 -364.94359375 2134.67484375 -365.4296875 2133.9921875 C-372.03552218 2125.27561274 -382.82518018 2119.9978613 -392.25 2114.875 C-398.64268552 2111.39886951 -404.55847914 2107.88487259 -410 2103 C-410.66902344 2102.44570312 -411.33804688 2101.89140625 -412.02734375 2101.3203125 C-427.99055206 2087.04227973 -432.94348967 2061.87616548 -434.15089035 2041.44693375 C-434.3170172 2036.33276772 -434.27684424 2031.22328828 -434.19492912 2026.10776711 C-434.1508541 2023.29962129 -434.12837237 2020.49194773 -434.11073303 2017.68351746 C-434.06338414 2010.72040156 -433.98625765 2003.75772016 -433.90020752 1996.79498291 C-433.82715011 1990.87205458 -433.77068832 1984.94944979 -433.73730659 1979.02615929 C-433.71553388 1976.29364391 -433.67011362 1973.56222255 -433.62376404 1970.83003235 C-433.51298728 1959.63966601 -434.94675424 1949.75295542 -438 1939 C-438.40086201 1937.53578932 -438.79948825 1936.07096477 -439.19590759 1934.60554504 C-439.37411513 1933.94980405 -439.55232267 1933.29406305 -439.73593044 1932.61845112 C-444.30623957 1915.45142889 -444.30623957 1915.45142889 -440.6015625 1908.30078125 C-435.73520736 1901.30984667 -428.64094033 1899.88008409 -420.68359375 1898.37109375 C-417.79270109 1897.88302096 -414.90095888 1897.42367956 -412 1897 C-412.62246579 1890.35093365 -414.75134524 1884.36710006 -416.875 1878.0625 C-432.93612363 1828.72580374 -414.30230825 1784.77988286 -396.92651367 1738.41333008 C-386.45452315 1710.46761027 -377.24354319 1682.66278704 -373 1653 C-372.44127197 1652.89977539 -371.88254395 1652.79955078 -371.30688477 1652.69628906 C-368.72313999 1652.22588698 -366.14296726 1651.73804885 -363.5625 1651.25 C-362.24475586 1651.01410156 -362.24475586 1651.01410156 -360.90039062 1650.7734375 C-352.84352982 1649.22747159 -345.02219652 1646.83400288 -339 1641 C-336.28895848 1632.86687544 -338.74744798 1624.35165743 -340.578125 1616.25585938 C-343.1965136 1603.75305379 -342.40296426 1592.99030184 -337.9765625 1581.04296875 C-337.55635834 1579.85689529 -337.13615417 1578.67082184 -336.70321655 1577.44880676 C-335.58848864 1574.31728059 -334.45489637 1571.1940012 -333.31164551 1568.07287598 C-332.1853466 1564.98030947 -331.08895267 1561.87715238 -329.98828125 1558.77539062 C-316.50279042 1521.00558084 -316.50279042 1521.00558084 -311 1510 C-304.71826791 1509.9138177 -298.60410448 1509.83226282 -292.37890625 1510.7734375 C-288.79831877 1511.11444583 -285.21854638 1511.1154985 -281.625 1511.125 C-280.90981201 1511.12951172 -280.19462402 1511.13402344 -279.45776367 1511.13867188 C-275.60168634 1511.19344943 -275.60168634 1511.19344943 -272 1510 C-272.57754277 1506.69956416 -273.51570428 1505.14084285 -275.94921875 1502.86328125 C-276.8470105 1502.00343628 -276.8470105 1502.00343628 -277.76293945 1501.1262207 C-278.39804443 1500.52769287 -279.03314941 1499.92916504 -279.6875 1499.3125 C-294.02831877 1485.41694709 -294.02831877 1485.41694709 -294.3125 1474.8125 C-294.19013818 1469.34220679 -293.87269515 1465.08969962 -290 1461 C-286.46010321 1458.68737875 -282.87683764 1456.68455126 -279.1171875 1454.76171875 C-275.80786882 1453.20086828 -275.80786882 1453.20086828 -274 1450 C-272.67320116 1440.79620597 -274.91069942 1432.89572061 -277.90625 1424.3359375 C-279 1421 -279 1421 -279 1418 C-274.826999 1419.56370235 -270.92833208 1421.5378581 -267.00390625 1423.6328125 C-266.33391098 1423.98834198 -265.66391571 1424.34387146 -264.97361755 1424.71017456 C-263.55507295 1425.4637407 -262.13720398 1426.2185799 -260.7199707 1426.97460938 C-258.60227767 1428.10379004 -256.48200269 1429.22799353 -254.36132812 1430.3515625 C-252.97110984 1431.09068646 -251.5811348 1431.83026813 -250.19140625 1432.5703125 C-249.50728668 1432.93384827 -248.82316711 1433.29738403 -248.11831665 1433.67193604 C-244.69600875 1435.50417954 -241.31715137 1437.38385905 -237.98388672 1439.37402344 C-237.34813217 1439.75098358 -236.71237762 1440.12794373 -236.05735779 1440.5163269 C-234.32195332 1441.55319195 -232.59605869 1442.60592634 -230.87084961 1443.65966797 C-228.16092154 1445.23296517 -228.16092154 1445.23296517 -225.61157227 1444.71142578 C-224.81384399 1444.35927002 -224.81384399 1444.35927002 -224 1444 C-223.79813293 1438.67488579 -224.47394289 1433.9777103 -225.8125 1428.8125 C-226.02044189 1427.99096436 -226.22838379 1427.16942871 -226.44262695 1426.32299805 C-229.32145725 1415.30745348 -232.76924972 1404.44419348 -236.1652832 1393.5793457 C-242.85451391 1372.12094925 -242.85451391 1372.12094925 -242 1365 C-238.68523665 1361.47437384 -234.76370739 1361.37184326 -230.1875 1361 C-223.86595571 1360.47765643 -218.70941891 1359.46865636 -213.31103516 1355.87597656 C-211.24586041 1352.92089226 -211.71378529 1349.82131119 -211.84765625 1346.359375 C-211.87591547 1344.79687976 -211.90390073 1343.23437955 -211.93164062 1341.671875 C-211.99307108 1339.23019656 -212.06129318 1336.78893474 -212.13696289 1334.34765625 C-213.11718029 1300.11382716 -194.24105414 1270.72517325 -176 1243 C-148.53088685 1205.38674471 -148.53088685 1205.38674471 -135 1162 C-135.69867187 1162.71671875 -136.39734375 1163.4334375 -137.1171875 1164.171875 C-139.97905741 1167.03173376 -143.0230247 1169.65561218 -146.125 1172.25 C-146.69484619 1172.72961182 -147.26469238 1173.20922363 -147.85180664 1173.70336914 C-151.35576271 1176.64536539 -154.88797998 1179.55055705 -158.4375 1182.4375 C-164.44735831 1187.33248605 -170.31751283 1192.38317358 -176.18847656 1197.44287109 C-177.99362396 1198.99451936 -179.80438559 1200.53933585 -181.6171875 1202.08203125 C-187.04810621 1206.70815023 -192.43378315 1211.35915511 -197.6875 1216.1875 C-201.09783749 1219.32025188 -204.56756494 1222.30017084 -208.1875 1225.1875 C-213.77383253 1229.69027665 -218.9706212 1234.56366783 -224.16674805 1239.50854492 C-228.09750851 1243.24526709 -232.09726155 1246.87421369 -236.1940918 1250.42822266 C-238.43211333 1252.37609107 -240.62274067 1254.37315347 -242.8125 1256.375 C-246.23229328 1259.46636801 -249.71958524 1262.42459032 -253.3125 1265.3125 C-257.53396375 1268.72420484 -261.54094067 1272.29297628 -265.5 1276 C-270.3054867 1280.49956712 -275.25160717 1284.73103036 -280.38671875 1288.85546875 C-282.99847623 1290.99874956 -285.50365302 1293.2238033 -288 1295.5 C-292.65027433 1299.7281837 -297.46583859 1303.70777175 -302.35107422 1307.66015625 C-305.62307014 1310.3188346 -308.87215367 1313.00545768 -312.125 1315.6875 C-313.59632892 1316.89977023 -315.06768339 1318.11200944 -316.5390625 1319.32421875 C-317.27801758 1319.93313965 -318.01697266 1320.54206055 -318.77832031 1321.16943359 C-323.05410448 1324.6924918 -327.33094586 1328.21426683 -331.6081543 1331.7355957 C-335.23923947 1334.72523528 -338.86886924 1337.71661465 -342.49609375 1340.7109375 C-349.95259239 1346.86427963 -357.41259318 1353.00807592 -365 1359 C-365.51594727 1359.40782715 -366.03189453 1359.8156543 -366.56347656 1360.23583984 C-374.98957472 1366.89172891 -383.43959711 1373.5173868 -392 1380 C-392.67063477 1380.50869629 -393.34126953 1381.01739258 -394.03222656 1381.54150391 C-451.46066894 1424.9304422 -451.46066894 1424.9304422 -472.25 1426.625 C-480.13256409 1425.31123932 -486.4783036 1420.8307691 -493 1416.4375 C-493.84630981 1415.87397827 -493.84630981 1415.87397827 -494.7097168 1415.29907227 C-498.78865145 1412.46028286 -498.78865145 1412.46028286 -499.90332031 1410.03271484 C-501.29731222 1407.44892663 -502.68049288 1406.71105102 -505.234375 1405.29296875 C-506.10755371 1404.79659912 -506.98073242 1404.30022949 -507.88037109 1403.78881836 C-508.82734863 1403.2603833 -509.77432617 1402.73194824 -510.75 1402.1875 C-532.4309195 1389.73087166 -552.88151574 1375.11260359 -572 1359 C-572.52239258 1358.56252441 -573.04478516 1358.12504883 -573.58300781 1357.67431641 C-586.58172089 1346.77131422 -598.88206623 1335.19771515 -610.92382812 1323.25140381 C-612.32934989 1321.85776419 -613.73882939 1320.46811959 -615.1484375 1319.07861328 C-621.20268127 1313.03206931 -626.69816911 1306.7121357 -632 1300 C-632.58571777 1299.27353271 -633.17143555 1298.54706543 -633.77490234 1297.79858398 C-641.6040552 1288.06076755 -648.34779523 1278.1488712 -654 1267 C-654.57492187 1265.86691406 -655.14984375 1264.73382812 -655.7421875 1263.56640625 C-665.60882915 1243.12135029 -669.96230755 1220.08899526 -662.34814453 1198.11914062 C-660.5029993 1193.28393317 -658.29150895 1188.63701967 -656 1184 C-655.61312012 1183.21383301 -655.22624023 1182.42766602 -654.82763672 1181.61767578 C-616.59479886 1104.74478641 -616.59479886 1104.74478641 -585.87109375 1088.328125 C-584.79988281 1087.74546875 -583.72867188 1087.1628125 -582.625 1086.5625 C-581.62726563 1086.04816406 -580.62953125 1085.53382812 -579.6015625 1085.00390625 C-576.28938338 1082.45263315 -574.94369005 1079.98198942 -574 1076 C-573.57658924 1072.25015049 -573.48912831 1068.52132501 -573.4375 1064.75 C-573.02455012 1041.65539564 -573.02455012 1041.65539564 -566 1034 C-561.45808017 1030.49642467 -557.00478457 1028.81912057 -551.625 1027.125 C-545.23231322 1024.98409165 -539.88028302 1022.81657175 -535 1018 C-534.113125 1017.13375 -533.22625 1016.2675 -532.3125 1015.375 C-525.8635074 1006.87699638 -523.92257565 996.22240872 -521.875 986.00585938 C-520.19574641 977.89332738 -517.74320875 968.41786966 -511 963 C-508.89619791 961.83584074 -506.76816604 960.7149951 -504.625 959.625 C-492.40514003 953.24642597 -489.1609991 944.48819856 -485 932 C-477.4365012 909.37078195 -477.4365012 909.37078195 -472 902 C-471.32904297 901.04287109 -471.32904297 901.04287109 -470.64453125 900.06640625 C-464.86423641 892.53745079 -456.3835134 889.09684761 -447.875 885.5 C-439.43178911 881.91538671 -432.72010024 878.85383857 -429 870 C-428.28638081 866.59809018 -428.28638081 866.59809018 -427.9375 863 C-427.77615689 861.67316307 -427.61469574 860.34634048 -427.453125 859.01953125 C-427.15644572 856.4348065 -426.87977793 853.84947483 -426.609375 851.26171875 C-423.97578374 828.94934833 -405.44580459 814.0687523 -388.6875 800.6875 C-380.69573016 794.27040481 -373.33801391 787.14485795 -366 780 C-364.64455078 778.68515625 -364.64455078 778.68515625 -363.26171875 777.34375 C-352.75058421 766.44054827 -346.59960572 752.43751057 -340.54589844 738.76416016 C-337.55472765 732.06066933 -334.41314485 725.90178941 -330 720 C-329.46117187 719.26910156 -328.92234375 718.53820312 -328.3671875 717.78515625 C-321.00623699 708.59252735 -311.51646543 704.54521383 -300 703 C-295.64803804 702.79428751 -291.35132408 702.84303109 -287 703 C-286.93268677 701.95827637 -286.93268677 701.95827637 -286.86401367 700.89550781 C-286.64973635 697.67948013 -286.4186928 694.46485425 -286.1875 691.25 C-286.11724609 690.15816406 -286.04699219 689.06632813 -285.97460938 687.94140625 C-284.44479082 667.25825932 -284.44479082 667.25825932 -277.2265625 659.87109375 C-272.78964686 656.1425278 -267.87503222 653.11648996 -263 650 C-255.23338967 644.92183171 -252.35418934 637.3406662 -250.375 628.5625 C-249.41232326 623.64155464 -248.65376316 618.70922383 -247.93164062 613.74804688 C-243.52965093 583.95892085 -219.986603 564.98576038 -198.01977539 546.35449219 C-193.08987324 542.14481201 -188.49606146 537.67047764 -184 533 C-179 528 -179 528 -177.2734375 526.37890625 C-138.33583953 489.07017194 -113.51812307 427.82061509 -91.48388672 379.24853516 C-90.04394168 376.09619743 -88.57660086 372.95842255 -87.09765625 369.82421875 C-72.21213329 338.19968351 -59.14844747 305.76402014 -47 273 C-46.71382812 272.22847595 -46.42765625 271.4569519 -46.1328125 270.66204834 C-23.45244086 209.34122333 -2.12921582 143.3249245 -12.47265625 77.44140625 C-15.193834 59.98147885 -17.59385809 42.89413449 -17.5 25.1875 C-17.49808655 24.44407349 -17.4961731 23.70064697 -17.49420166 22.93469238 C-17.40141049 7.63569444 -17.40141049 7.63569444 -12.4375 2.1875 C-8.54574655 -0.78352153 -4.69962702 -1.24498891 0 0 Z M14 40 C15 42 15 42 15 42 Z M13 43 C14 45 14 45 14 45 Z M12 47 C13 49 13 49 13 49 Z M11 52 C12 54 12 54 12 54 Z " fill="#87358D" transform="translate(666,0)"/>
<path d="M0 0 C12.66800907 2.15625686 20.68512831 10.20606432 27.93652344 20.27832031 C35.00895613 30.41262948 41.07081724 41.16909063 47 52 C47.62237549 53.12801025 48.24475098 54.25602051 48.88598633 55.41821289 C53.8572303 64.51528114 58.18606182 73.80684086 62.3125 83.3125 C62.96453462 84.8014406 63.61696617 86.29020744 64.26977539 87.77880859 C68.70633266 97.91857123 73.00513131 108.11279073 77.27514648 118.32373047 C80.33489383 125.58173581 83.6687365 132.63791996 87.27734375 139.63671875 C93.73340498 152.24140972 97.48790014 162.3181742 93.375 176.5 C88.6224172 190.31829726 80.67733512 202.02345208 72.79296875 214.21777344 C70.1256524 218.3567627 67.49883993 222.52086481 64.875 226.6875 C63.88942495 228.25006436 62.90374832 229.81256466 61.91796875 231.375 C61.43505371 232.14070312 60.95213867 232.90640625 60.45458984 233.6953125 C59.00918211 235.98545164 57.56159316 238.27419657 56.11328125 240.5625 C48.67135883 252.32380754 41.28859248 264.1215191 33.91894531 275.92822266 C32.03951993 278.93673794 30.15702804 281.94330979 28.2734375 284.94921875 C20.40100396 297.51692626 12.59873239 310.12601826 4.8359375 322.76171875 C1.40287542 328.34877523 -2.04509578 333.92643131 -5.5 339.5 C-22.91873731 367.61719946 -40.19365874 395.81356055 -57.04516602 424.27441406 C-61.30514567 431.46826235 -65.58480907 438.64910035 -69.90161133 445.80908203 C-78.11707146 459.43604655 -86.09402993 473.19160017 -94 487 C-94.99869689 488.74048795 -95.99739503 490.48097518 -96.99624634 492.22137451 C-105.50124179 507.04424196 -113.92105022 521.91312425 -122.23925781 536.84179688 C-124.04961416 540.08899178 -125.86454921 543.33360111 -127.6796875 546.578125 C-136.28025131 561.9756915 -144.68358678 577.47152392 -152.96044922 593.04522705 C-154.05576024 595.10485165 -155.15271775 597.16359293 -156.25 599.22216797 C-167.68733675 620.64962741 -167.68733675 620.64962741 -178.6706543 642.31176758 C-180.85181737 646.73091196 -183.09968818 651.10282482 -185.42602539 655.44726562 C-193.42554421 670.39403505 -200.6826488 685.71171704 -208 701 C-208.35100769 701.73230835 -208.70201538 702.4646167 -209.06365967 703.21911621 C-219.77979191 725.57866122 -230.11799693 748.08540255 -240.04223633 770.80773926 C-240.9817005 772.9581136 -241.92335073 775.10752046 -242.86523438 777.25683594 C-281.18073718 864.81245198 -313.09492464 955.18836685 -372 1262 C-372.05113953 1262.74799866 -372.10227905 1263.49599731 -372.15496826 1264.2666626 C-378.19772547 1354.05315732 -368.60410196 1439.2028739 -339.125 1536.625 C-338.79258301 1537.65906982 -338.46016602 1538.69313965 -338.11767578 1539.75854492 C-334.86149585 1549.36484075 -330.3673206 1557.10043408 -322.9921875 1564.0859375 C-320.47831177 1566.50122986 -318.24452853 1569.09864627 -315.98046875 1571.74609375 C-314.021148 1573.97593216 -311.98951348 1576.12581685 -309.94555664 1578.27783203 C-298.8005979 1590.10982167 -286.75338972 1607.30115742 -286.6875 1624.125 C-286.67074219 1625.11757812 -286.65398437 1626.11015625 -286.63671875 1627.1328125 C-287.06326661 1630.49933004 -287.94183614 1632.31463045 -290 1635 C-294.11088338 1637.74058892 -298.22997612 1637.58348916 -303 1637 C-314.05493689 1634.16374797 -324.70007158 1627.80836091 -333 1620 C-334 1617 -334 1617 -333.00390625 1614.94140625 C-332.52824219 1614.15636719 -332.05257812 1613.37132813 -331.5625 1612.5625 C-328.52311614 1606.59598226 -327.349548 1601.59375703 -329 1595 C-331.4649328 1590.55295629 -334.38425751 1586.67055849 -337.58886719 1582.73486328 C-339.36031372 1580.55702608 -341.06604171 1578.3328331 -342.7722168 1576.10375977 C-343.59384951 1575.03052348 -344.41825713 1573.95940615 -345.24536133 1572.89038086 C-353.63361521 1562.04606982 -361.18090219 1550.89371045 -368 1539 C-368.63591064 1537.90655273 -368.63591064 1537.90655273 -369.28466797 1536.79101562 C-395.0256528 1492.3626589 -409.39552745 1441.27303344 -416.25 1390.625 C-416.40098145 1389.51189453 -416.55196289 1388.39878906 -416.70751953 1387.25195312 C-417.09386756 1384.21866375 -417.44774385 1381.1842412 -417.77114868 1378.14361572 C-417.92998371 1376.65583203 -418.09477352 1375.16867677 -418.26425171 1373.68206787 C-420.38766512 1354.6196862 -420.34180657 1335.54141519 -420.31567383 1316.38818359 C-420.31107295 1312.73766659 -420.31786438 1309.08748522 -420.33618164 1305.43701172 C-420.51736681 1268.95655073 -417.78917605 1233.14760265 -413 1197 C-412.87657227 1196.0399707 -412.75314453 1195.07994141 -412.62597656 1194.09082031 C-407.31470769 1152.87845284 -398.2447759 1112.07552055 -388.63378906 1071.68359375 C-388.00008128 1069.00034414 -387.38471422 1066.31344014 -386.7734375 1063.625 C-384.39124482 1053.24044359 -381.62496665 1043.0215804 -378.58837891 1032.80908203 C-376.75853105 1026.6481626 -375.03581668 1020.47481667 -373.4375 1014.25 C-369.92745255 1000.65145267 -365.87086655 987.21590557 -361.2734375 973.9453125 C-360.13748851 970.55099985 -359.18195175 967.11494346 -358.21875 963.66796875 C-356.00793186 955.86556714 -353.48380254 948.18293636 -350.90087891 940.49682617 C-350.12970106 938.20149225 -349.36330258 935.9046061 -348.59765625 933.60742188 C-343.81770943 919.30063949 -338.82500621 905.07423902 -333.5625 890.9375 C-333.14766357 889.8222998 -332.73282715 888.70709961 -332.30541992 887.55810547 C-331.62139819 885.72079271 -330.93735205 883.88348881 -330.25227356 882.04656982 C-328.93768355 878.52150093 -327.62718177 874.99497115 -326.32226562 871.46630859 C-313.17006055 835.90618564 -299.00443512 800.81756152 -284 766 C-283.57554596 765.01444122 -283.57554596 765.01444122 -283.14251709 764.00897217 C-274.03443414 742.8745565 -264.56523654 721.91306045 -254.92840576 701.01501465 C-254.04589202 699.09960417 -253.16531615 697.18331871 -252.28564453 695.26660156 C-244.36866892 678.02476522 -236.1663272 660.93462858 -227.85671997 643.87983704 C-224.79013572 637.58050341 -221.76901914 631.25974613 -218.75 624.9375 C-211.12071869 609.0014932 -203.27929169 593.17277342 -194.99511719 577.56616211 C-192.45386856 572.7760784 -189.94553702 567.97014921 -187.46484375 563.1484375 C-187.1539682 562.54429016 -186.84309265 561.94014282 -186.52279663 561.31768799 C-186.20751007 560.70496033 -185.89222351 560.09223267 -185.56738281 559.4609375 C-179.5309704 547.73078779 -173.38427983 536.07403864 -167.0234375 524.515625 C-164.25994716 519.49142831 -161.54836873 514.44042023 -158.84204102 509.38525391 C-152.79438627 498.09309023 -146.60728063 486.89340676 -140.26953125 475.76171875 C-138.03685839 471.83862231 -135.8276934 467.9035662 -133.63671875 463.95703125 C-126.01969019 450.24073841 -118.14365646 436.70236139 -110.10635376 423.22843933 C-106.57584571 417.30220327 -103.10254905 411.34289928 -99.62631226 405.38473511 C-86.72836179 383.29145875 -73.41254391 361.45848572 -59.7734375 339.81445312 C-58.61807976 337.9808953 -57.46435113 336.14630961 -56.3125 334.31054688 C-39.74465649 307.91531505 -22.22495507 282.14728318 -4.33496094 256.63476562 C10.34661687 235.67482876 24.59898637 214.44944069 38.234375 192.79345703 C39.98762924 190.01957221 41.75831967 187.25743274 43.53125 184.49609375 C50.01314026 174.32469576 55.76338484 164.31036299 60 153 C60.53560547 151.66775391 60.53560547 151.66775391 61.08203125 150.30859375 C68.47750353 128.73002393 59.8614637 108.17289008 50.50622559 88.96270752 C37.57039102 62.65380147 22.6794188 37.42439227 7.07250977 12.62084961 C4.48716285 8.49617441 2.07782854 4.40386185 0 0 Z " fill="#EFEC5C" transform="translate(826,770)"/>
<path d="M0 0 C4.81739623 2.54503952 8.01479494 5.32647344 9.9140625 10.48046875 C10.26597656 11.82044922 10.26597656 11.82044922 10.625 13.1875 C10.86476563 14.06792969 11.10453125 14.94835938 11.3515625 15.85546875 C12.9369807 23.54379197 13.16230781 31.23439561 13.24609375 39.0625 C13.27901723 41.17969187 13.31222912 43.29687927 13.34570312 45.4140625 C13.39310256 48.71188467 13.43761511 52.00968682 13.47680664 55.30761719 C13.51673016 58.51775511 13.56819959 61.72755313 13.62109375 64.9375 C13.63371498 66.40038452 13.63371498 66.40038452 13.64659119 67.89282227 C13.94458239 84.56806743 20.09769187 95.40641609 31.82495117 106.93847656 C33.69759795 108.73685633 35.58788817 110.51708694 37.49731445 112.27636719 C46.2112279 120.49344505 50.00407322 129.08743569 52.625 140.625 C52.8310083 141.51687012 53.0370166 142.40874023 53.24926758 143.32763672 C60.15746996 174.75222754 60.30516099 207.76725681 61.60180664 239.80078125 C62.18377147 254.08558083 62.880995 268.35188663 64.16887093 282.59299469 C64.34014177 284.49468848 64.5008128 286.39732795 64.66099548 288.29998779 C65.86077328 300.70256222 68.53562967 312.62557189 74.6875 323.5625 C75.12030273 324.36059082 75.55310547 325.15868164 75.99902344 325.98095703 C79.0427131 331.5130237 82.38478369 336.80500808 85.87011719 342.06567383 C97.07066758 359.18098028 98.66823703 374.64927022 94.63378906 394.25683594 C88.78443387 419.57399885 78.75113593 444.05545721 68.87939453 468.02758789 C65.78176205 475.55726018 62.79157511 483.11115928 59.93505859 490.73681641 C47.19958734 524.68644253 47.19958734 524.68644253 33.73828125 531.69921875 C30.19318643 533.24751649 26.62427366 534.64830797 23 536 C20.78695432 536.86301211 18.57823811 537.73724838 16.375 538.625 C14.96347656 539.17027344 14.96347656 539.17027344 13.5234375 539.7265625 C10.51636062 541.24406569 8.98813225 542.24786933 7 545 C4.44101029 552.90276234 4.61800356 561.30440002 4.43359375 569.52148438 C3.86717121 587.93021697 -4.8382062 601.13847942 -17.75 613.875 C-18.25526215 614.34903763 -18.76052429 614.82307526 -19.28109741 615.31147766 C-21.03987953 617.03917469 -22.62980975 618.84367162 -24.22900391 620.71948242 C-27.83929115 624.87465264 -31.66123574 628.75684171 -35.5859375 632.61328125 C-37.02618046 634.04087562 -38.46628015 635.46861453 -39.90625 636.89648438 C-42.13766206 639.10318453 -44.37066177 641.3082268 -46.60644531 643.51049805 C-54.89748514 651.68541943 -62.84351571 659.79894818 -70 669 C-70.95832758 670.14849618 -71.92343175 671.29140961 -72.8984375 672.42578125 C-77.96880941 678.33588352 -82.87778453 684.33518262 -87.65917969 690.48095703 C-93.1112638 697.46631956 -98.77895309 704.27291081 -104.4296875 711.09765625 C-106.5087402 713.61630964 -108.56668129 716.15188999 -110.625 718.6875 C-118.60909143 728.44583397 -126.85329827 737.95462514 -135.421875 747.203125 C-137.79283218 749.77525431 -140.11870887 752.38093376 -142.4375 755 C-146.32768732 759.34415891 -150.40122295 763.4704288 -154.57592773 767.5390625 C-157.1324933 770.04985835 -159.54180085 772.61409052 -161.85302734 775.35302734 C-166.78314547 781.00832607 -172.13248629 786.24366847 -177.45271301 791.52787781 C-179.38151763 793.44376469 -181.30704603 795.36289273 -183.23181152 797.28283691 C-188.01002439 802.04777408 -192.79369816 806.80721655 -197.57720947 811.5668335 C-201.63035284 815.60015475 -205.68137892 819.63558074 -209.72969055 823.67375183 C-211.61472776 825.55236917 -213.50278098 827.42791748 -215.39099121 829.30334473 C-220.63135315 834.52162558 -225.83094339 839.7148656 -230.59606934 845.3795166 C-232.15195426 847.17539282 -233.80376356 848.83680313 -235.5 850.5 C-238.53594925 853.48872337 -241.34508659 856.61706479 -244.125 859.84375 C-246.17359094 862.19962958 -248.27203002 864.5050746 -250.375 866.8125 C-266.11710783 882.800643 -266.11710783 882.800643 -273 903 C-271.02 904.32 -269.04 905.64 -267 907 C-270.23177261 911.84765891 -275.49184015 912.41396774 -281.00830078 913.64257812 C-286.39674423 914.60956528 -294.13693568 915.92049171 -298.8984375 912.7265625 C-300.70771375 909.89074653 -300.05750965 907.70409224 -299.5546875 904.4921875 C-293.26152952 876.21729462 -268.19133915 847.55970213 -251 825 C-250.126077 823.84131557 -249.25236623 822.68247102 -248.37890625 821.5234375 C-242.27555248 813.46961436 -235.89320046 805.64281065 -229.49267578 797.82470703 C-228.17813798 796.21776304 -226.86801698 794.60720809 -225.55859375 792.99609375 C-216.90428393 782.36011728 -207.98047993 771.95215293 -199.046875 761.55078125 C-196.9903355 759.15611701 -194.93862686 756.75743831 -192.890625 754.35546875 C-188.42228669 749.11935532 -183.94582096 743.90432668 -179.3125 738.8125 C-176.30185521 735.4991692 -173.43434822 732.11058071 -170.625 728.625 C-167.38047268 724.6117345 -164.01250676 720.77586874 -160.5 717 C-156.26728231 712.44539432 -152.27263382 707.75045203 -148.375 702.90625 C-145.66531223 699.59044786 -142.86786069 696.35970284 -140.0625 693.125 C-134.87687458 687.12054852 -129.99160792 680.93569373 -125.21337891 674.60449219 C-121.51135913 669.70918555 -117.7539808 664.85550764 -114 660 C-113.56042969 659.4313623 -113.12085938 658.86272461 -112.66796875 658.27685547 C-99.08029268 640.73915974 -84.53889158 624.33009642 -68.75 608.75 C-59.82435161 599.95110653 -59.82435161 599.95110653 -51.41796875 590.65869141 C-49.55469495 588.47909737 -47.58555596 586.40451086 -45.625 584.3125 C-36.01335665 573.67869217 -29.33786361 564.62375519 -30 550 C-30.14371787 548.64320587 -30.30704689 547.28817177 -30.5 545.9375 C-31.44283889 538.51264374 -32.58780506 529.47774991 -28 523 C-23.14497268 519.00573958 -18.29961571 517.81750213 -12.3125 516.5 C-4.31823342 514.6290943 3.61410969 512.69294516 11 509 C13.7337201 501.77301067 15.52838752 494.3063948 17.375 486.8125 C17.68244141 485.57943115 17.98988281 484.3463623 18.30664062 483.07592773 C19.93818542 476.48545753 21.48572737 469.88621425 22.91674805 463.24951172 C27.25283097 443.27340094 34.33193002 425.57482464 43.38867188 407.28076172 C57.24393489 379.07060651 70.57804919 351.63559431 60 320 C56.50637529 313.1057761 50.15722075 308.13688868 44.07421875 303.546875 C39.19719101 299.74550862 36.96889039 295.83202131 35 290 C34.64035156 288.96101563 34.28070312 287.92203125 33.91015625 286.8515625 C32.784683 282.0888302 32.70185141 277.68711534 32.75 272.8125 C32.75386719 271.84417236 32.75773437 270.87584473 32.76171875 269.87817383 C32.83549744 263.59212702 33.27228344 257.42843284 34 251.1875 C34.8945087 243.44734122 35.22221523 235.79189274 35.25 228 C35.25902344 226.98574951 35.26804687 225.97149902 35.27734375 224.92651367 C35.21725407 209.59989007 32.04075521 198.81071511 22.375 187 C14.9696028 177.82850295 13.19930423 170.61669831 14.33984375 158.734375 C15.0254853 153.11864424 16.32603623 147.63999336 17.5625 142.125 C21.57380821 123.96149992 21.72914102 110.41724407 11.5 94.25 C7.59879334 88.60099376 3.24618007 83.36476489 -1.13061523 78.08105469 C-11.76039543 65.11511017 -21.4200591 51.11518726 -21.3125 33.875 C-21.30686035 32.94010742 -21.3012207 32.00521484 -21.29541016 31.04199219 C-21.10584857 20.22009038 -19.58407868 10.27016893 -12 2 C-8.19014105 -0.38211622 -4.39341053 -0.69414193 0 0 Z " fill="#F0EC60" transform="translate(698,31)"/>
<path d="M0 0 C0.73089844 0.09667969 1.46179688 0.19335938 2.21484375 0.29296875 C4.0625 0.8125 4.0625 0.8125 6.0625 2.8125 C6.328125 5.0546875 6.328125 5.0546875 6.3125 7.6875 C6.31765625 8.55117187 6.3228125 9.41484375 6.328125 10.3046875 C5.86491999 14.67788774 4.66528716 16.29485227 1.296875 19.1875 C0.14034443 20.06900298 -1.02146745 20.94360498 -2.1875 21.8125 C-7.29569075 25.71677357 -12.26787122 29.72461539 -17.125 33.9375 C-21.26346405 37.5236718 -25.4287631 41.05587381 -29.6875 44.5 C-34.06833302 48.05462328 -38.25427802 51.77748624 -42.421875 55.578125 C-44.95080295 57.82431566 -47.54799914 59.94781218 -50.1875 62.0625 C-55.94696426 66.71908812 -61.31698699 71.74084177 -66.71484375 76.8046875 C-69.75811941 79.6572641 -72.86694134 82.4217621 -76.0234375 85.1484375 C-80.04578181 88.64541439 -83.98188979 92.24046411 -87.9375 95.8125 C-94.94569827 102.14111541 -101.9736763 108.43645645 -109.16015625 114.5625 C-114.71872479 119.30329323 -120.24687974 124.05336217 -125.625 129 C-130.03371567 133.04670969 -134.59815675 136.84003715 -139.25390625 140.59765625 C-141.88458557 142.76882827 -144.41692424 145.01491357 -146.9375 147.3125 C-151.58777433 151.5406837 -156.40333859 155.52027175 -161.28857422 159.47265625 C-164.56057014 162.1313346 -167.80965367 164.81795768 -171.0625 167.5 C-172.53382892 168.71227023 -174.00518339 169.92450944 -175.4765625 171.13671875 C-176.21551758 171.74563965 -176.95447266 172.35456055 -177.71582031 172.98193359 C-181.99160448 176.5049918 -186.26844586 180.02676683 -190.5456543 183.5480957 C-194.17673947 186.53773528 -197.80636924 189.52911465 -201.43359375 192.5234375 C-208.89009239 198.67677963 -216.35009318 204.82057592 -223.9375 210.8125 C-224.7114209 211.42424072 -224.7114209 211.42424072 -225.50097656 212.04833984 C-233.92707472 218.70422891 -242.37709711 225.3298868 -250.9375 231.8125 C-251.60813477 232.32119629 -252.27876953 232.82989258 -252.96972656 233.35400391 C-310.39816894 276.7429422 -310.39816894 276.7429422 -331.1875 278.4375 C-339.10972886 277.11712852 -345.49944425 272.59121999 -352.0625 268.1875 C-352.64346436 267.80343994 -353.22442871 267.41937988 -353.82299805 267.02368164 C-355.4453125 265.8984375 -355.4453125 265.8984375 -357.9375 263.8125 C-357.9375 262.8225 -357.9375 261.8325 -357.9375 260.8125 C-356.53299063 259.81737677 -355.11810082 258.83356734 -353.65380859 257.92871094 C-350.78049149 256.06003301 -348.3034448 253.71159681 -345.75 251.4375 C-324.50398207 232.89803624 -300.22865618 217.50349834 -276.92285156 201.69580078 C-253.63813592 185.89269691 -230.48473932 169.96101704 -208.9375 151.8125 C-207.96167969 151.02101563 -206.98585938 150.22953125 -205.98046875 149.4140625 C-197.87464758 142.75255129 -190.41223175 135.47561311 -183 128.0625 C-182.50359009 127.56699646 -182.00718018 127.07149292 -181.49572754 126.56097412 C-176.30599991 121.3701729 -171.21404577 116.12946783 -166.43334961 110.55566406 C-163.79226738 107.47792176 -161.02651784 104.51643008 -158.27929688 101.53344727 C-157.5609668 100.75312134 -157.5609668 100.75312134 -156.828125 99.95703125 C-156.10979492 99.17706787 -156.10979492 99.17706787 -155.37695312 98.38134766 C-153.96910377 96.84694468 -152.56923617 95.30567364 -151.171875 93.76171875 C-116.32733169 55.32521075 -71.5887421 29.08538024 -24.75 7.5625 C-23.78924561 7.12091553 -22.82849121 6.67933105 -21.83862305 6.22436523 C-5.96361007 -0.91664893 -5.96361007 -0.91664893 0 0 Z " fill="#F0EC62" transform="translate(524.9375,1148.1875)"/>
<path d="M0 0 C0.474375 0.639375 0.94875 1.27875 1.4375 1.9375 C3.63256106 4.56086566 5.88122625 6.9144177 8.3125 9.3125 C11.7236139 12.68478822 14.94266499 16.13367012 18.0546875 19.78125 C20.00005199 22.0000593 22.0202824 24.13637612 24.05224609 26.27563477 C35.19832155 38.10776714 47.24660674 55.30025386 47.3125 72.125 C47.32925781 73.11757812 47.34601563 74.11015625 47.36328125 75.1328125 C46.93673339 78.49933004 46.05816386 80.31463045 44 83 C39.88911662 85.74058892 35.77002388 85.58348916 31 85 C19.94506311 82.16374797 9.29992842 75.80836091 1 68 C0 65 0 65 0.99609375 62.94140625 C1.47175781 62.15636719 1.94742187 61.37132813 2.4375 60.5625 C5.47688386 54.59598226 6.650452 49.59375703 5 43 C2.5350672 38.55295629 -0.38425751 34.67055849 -3.58886719 30.73486328 C-5.36121308 28.55592039 -7.06789912 26.3307083 -8.77441406 24.10009766 C-9.5877051 23.03828302 -10.40473785 21.9793233 -11.22558594 20.92333984 C-16.01261254 14.75696842 -20.50425038 8.3801383 -25 2 C-22 2 -22 2 -19.9375 3 C-15.02182384 4.67342167 -9.68200659 5.09372609 -4.796875 3.1015625 C-2.67165853 1.92057182 -2.67165853 1.92057182 0 0 Z " fill="#EEEA83" transform="translate(492,2322)"/>
</svg>
